<?xml version="1.0" standalone="no"?>
<!DOCTYPE svg PUBLIC "-//W3C//DTD SVG 20010904//EN"
 "http://www.w3.org/TR/2001/REC-SVG-20010904/DTD/svg10.dtd">
<svg version="1.0" xmlns="http://www.w3.org/2000/svg"
 width="350.000000pt" height="350.000000pt" viewBox="0 0 350.000000 350.000000"
 preserveAspectRatio="xMidYMid meet">
<metadata>
Created by potrace 1.15, written by Peter Selinger 2001-2017
</metadata>
<g transform="translate(0.000000,350.000000) scale(0.100000,-0.100000)"
fill="#000000" stroke="none">
<path d="M2008 2745 l-88 -93 0 -159 c0 -88 3 -163 7 -166 3 -4 11 -2 18 3 6
5 22 12 36 14 13 3 24 5 24 6 0 1 28 7 63 14 30 5 32 26 30 248 l-3 225 -87
-92z"/>
<path d="M1687 2474 l-88 -92 3 -75 3 -74 25 10 c14 5 34 12 45 14 38 9 50 11
50 13 0 1 11 4 24 6 14 2 26 6 28 8 2 2 2 66 1 142 l-3 139 -88 -91z"/>
<path d="M2193 2069 c74 -56 2 -105 -217 -146 -134 -26 -571 -25 -711 1 -55
10 -110 22 -122 27 -27 10 -30 -2 -5 -24 92 -84 497 -137 817 -107 436 42 582
168 285 249 l-75 20 28 -20z"/>
<path d="M1268 1234 c9 -4 12 -40 12 -129 0 -89 -3 -125 -12 -128 -7 -3 3 -5
22 -5 19 0 29 2 23 5 -7 2 -13 22 -13 43 0 36 2 38 38 44 51 8 77 37 77 87 0
57 -29 81 -102 86 -32 1 -52 0 -45 -3z"/>
</g>
</svg>
